PathFileType	4	(X/Y/Z)	Patient5_TMGait_0pt45_1_right_10.trc.trc
DataRate	CameraRate	NumFrames	NumMarkers	Units	OrigDataRate	OrigDataStartFrame	OrigNumFrames
58.333333333333	58.333333333333	5	32	mm	58.333333333333	106	       141
Frame#	Time	R.ASIS			L.ASIS			Chest			R.Shoulder			Neck			L.Shoulder			L.Elbow			L.Wrist			R.Elbow			R.Wrist			L.Thigh.Superior			L.Thigh.Lateral			L.Thigh.Inferior			L.Patella			L.Shank.Superior			L.Shank.Lateral			L.Shank.Inferior			L.Heel			L.Midfoot.Lateral			L.Midfoot.Superior			L.Toe			R.Thigh.Superior			R.Thigh.Lateral			R.Thigh.Inferior			R.Patella			R.Shank.Superior			R.Shank.Lateral			R.Shank.Inferior			R.Heel			R.Midfoot.Lateral			R.Midfoot.Superior			R.Toe			
		X1	Y1	Z1	X2	Y2	Z2	X3	Y3	Z3	X4	Y4	Z4	X5	Y5	Z5	X6	Y6	Z6	X7	Y7	Z7	X8	Y8	Z8	X9	Y9	Z9	X10	Y10	Z10	X11	Y11	Z11	X12	Y12	Z12	X13	Y13	Z13	X14	Y14	Z14	X15	Y15	Z15	X16	Y16	Z16	X17	Y17	Z17	X18	Y18	Z18	X19	Y19	Z19	X20	Y20	Z20	X21	Y21	Z21	X22	Y22	Z22	X23	Y23	Z23	X24	Y24	Z24	X25	Y25	Z25	X26	Y26	Z26	X27	Y27	Z27	X28	Y28	Z28	X29	Y29	Z29	X30	Y30	Z30	X31	Y31	Z31	X32	Y32	Z32	

106	18.120000000000	900.369642875458	1007.698859652932	509.563625845583	903.815800453797	963.320020247422	271.132873601674	972.403849024167	1446.198505583418	384.865899260931	846.160041723007	1518.799148021943	528.756899008103	858.611308545197	1572.092567002548	342.434948470602	954.755470634030	1506.257972410614	181.858607343139	965.758164447497	1175.314321380343	67.207269186622	1116.243601646517	936.819167380754	133.379881101897	733.984045772590	1205.235327842652	661.283790590413	958.515721449194	1023.294421823155	629.443978604851	902.028169643842	739.016247870036	277.960290669093	818.133485484119	675.947084997465	242.806565835676	883.398010578854	610.775002555538	303.862858576498	867.271429672996	496.379695770578	313.027750508639	812.254987459148	400.661368577729	340.206850506916	734.955264635883	336.152697761205	267.875870082808	769.727584208580	281.418775093782	355.658564223471	617.973430720283	53.135472299337	369.177060220300	706.869621930868	27.508954163841	310.548077204653	804.544247960646	89.669781529248	353.592065305127	910.530762697572	45.325093063697	362.068783016666	965.651638094407	814.988294767607	559.465524978146	910.917105407971	729.662195392660	628.476531421762	1005.229195899262	692.554734936117	562.748998663992	1037.221790838540	601.676634316372	611.051887649632	1008.060690880724	489.102780967110	584.561418727083	935.324956263757	420.937787605600	665.352822908227	1002.974810855020	349.532821085577	595.303856544443	906.137323098921	114.103637208539	574.263550839911	979.683131142260	88.663372878620	654.383892711597	1080.458682188656	163.858190618679	645.934839653523	1186.307493476960	131.138695971995	655.610006996625	
107	18.137142857143	899.680324662502	1007.820402350208	509.623852350766	902.432805621959	963.260057297976	271.143280881191	970.493526506967	1445.921455240922	385.167891669881	844.732464035771	1518.330602516621	529.842482306449	856.286310358167	1571.595085857109	343.554881785358	951.602742042625	1505.885005653273	182.311598730714	961.943326435462	1174.685392734352	68.247216002052	1111.212325290743	935.614414542520	135.259091335028	732.359817444053	1205.059106402935	662.733430938956	957.592294570476	1023.857179660203	631.427781118354	899.477214889916	738.384856326915	278.360747284005	814.802934219437	675.873145993715	243.230635659936	879.475753807929	610.223002272134	304.200568829697	862.091592470485	495.861108800193	313.068103848654	806.526001970950	400.577842529155	340.359007553490	728.448866192676	336.707349627167	268.301259043706	763.401275858462	281.575614609020	355.795014769338	610.349498541382	53.630960812343	369.272276897164	699.167515641119	27.684278224285	310.737727635056	796.976064456494	89.839721691293	353.477669032017	902.785878604354	45.188673159283	362.089477436071	969.132249104850	816.109706581970	558.524404534927	916.779726072934	730.092985708748	628.618851110928	1010.780942473972	694.475802073768	561.698604318964	1044.708579077991	603.872750200539	609.594146269213	1015.178256468743	490.297486578970	583.119957412697	943.758046101683	421.939002138301	664.903443278021	1009.891805699067	350.682153389673	593.407852170502	912.200436940755	115.452226943132	573.292839360737	987.196980280393	89.783542322893	651.988504404828	1087.785215516634	165.039540246354	641.944343319972	1193.784281016831	132.296243186264	649.606223610416	
108	18.154285714286	899.320762978445	1007.904433348204	509.754731004412	901.284864768276	963.166822265018	271.269225370265	968.778013541926	1445.625173763998	385.607151617354	843.639213746949	1517.737030270659	531.182638677271	854.088185922149	1571.023949547108	344.919060728420	948.365085744913	1505.520511680646	182.895582014990	957.679356418446	1174.074833430722	69.288458830937	1105.862767105965	934.434927178658	136.832497484740	731.113241701422	1204.801498138528	664.616740863661	956.611281074324	1023.893390232401	633.377706381266	897.119074072382	737.763307614375	278.699401261409	811.667011152815	675.814216060739	243.654550002999	875.815178268220	609.708620035875	304.480656115045	857.095736381639	495.327784600102	313.062510350606	800.970154651033	400.477070247400	340.479589155668	722.031270234143	337.318990274589	268.728869657206	757.204637986780	281.734278049487	355.914319716389	602.755850235722	54.211589904340	369.355739031633	691.482309188816	27.880062695794	310.923494038067	789.419770493323	89.973269491443	353.377666733433	895.049544207208	45.105668628674	362.073856331904	972.369086798493	816.733124793662	557.759295594046	922.122900492550	730.083059081615	628.691002241365	1015.766450705710	695.798615194292	560.634319685825	1051.368969521027	605.381631297206	607.998297508653	1021.469685486965	490.956515857010	581.497096426315	951.306181883920	422.425987129574	664.203972720616	1015.947875049603	351.306681860356	591.343140200670	917.380130712513	116.284488612172	572.177133178466	993.802788332918	90.368170695885	649.431234337301	1094.184564073593	165.659702257279	637.808374606556	1200.316296559831	132.858833841338	643.404999771900	
109	18.171428571429	899.322400037025	1007.901056806125	509.972906259764	900.345835813773	963.000091069195	271.540775011773	967.271422538114	1445.292089153902	386.198179405200	842.889846899719	1517.013788033699	532.772011083163	852.036555886143	1570.371134748929	346.520369542870	945.083831410683	1505.141391893723	183.625244977346	952.984686935985	1173.468883518224	70.333948125922	1100.219314370095	933.252905082758	138.038530858633	730.323897838029	1204.443435265273	666.942961338301	955.632248354488	1023.372362309382	635.239022038315	894.936438456494	737.138488144650	279.016503457772	808.706096342002	675.750904189176	244.129310487722	872.371016289009	609.203978805540	304.741133577322	852.241882105005	494.787579499334	313.056169182422	795.555689675852	400.359875333468	340.587242043646	715.696483507400	337.977366030655	269.168298011943	751.103776771962	281.892345825203	356.033818788582	595.188083525828	54.855731958617	369.446895352058	683.811145509621	28.105489402280	311.102775746086	781.874154488026	90.072353301604	353.294036846992	887.324561759649	45.072449883284	362.020645375834	975.365860035573	816.828694987633	557.185052516619	926.918507787412	729.570466659993	628.675372006762	1020.166645981269	696.443181486587	559.551745006889	1057.161516158075	606.114080121881	606.270808593628	1026.916661931641	491.019113216096	579.706720130874	957.941908704684	422.314132299776	663.239782756287	1021.183471831701	351.351940992115	589.115490540511	921.823024237357	116.502637487091	570.842213504649	999.580798255968	90.368476334779	646.722136319594	1099.726137249543	165.699207152237	633.611199703529	1205.974708096301	132.847724813524	637.212614522457	
110	18.188571428571	899.708953882945	1007.750222209258	510.299796950794	899.554773448286	962.702140551700	271.997026092972	965.986186299369	1444.901893659011	386.954470831398	842.491183968820	1516.152484044437	534.611966162678	850.147433832508	1569.628780837513	348.363413296249	941.799374252343	1504.723689652284	184.518221251701	947.909705470344	1172.857826560978	71.386998518350	1094.304290411486	932.029266199335	138.841752514169	730.041767484973	1203.961431293743	669.695695240039	954.722142095725	1022.300692645946	636.980540562649	892.909304307570	736.492056620768	279.373371871908	805.892080897519	675.662021644296	244.707531269482	869.078678952481	608.676920562765	305.034438349019	847.476081601570	494.252723982948	313.102111876114	790.230733449228	400.231567475371	340.705566786146	709.427284317754	338.672337492976	269.634753797230	745.056256739347	282.053621638236	356.180900786831	587.639499018191	55.542845842488	369.562130105585	676.149001285323	28.370399582810	311.273102540624	774.336916552002	90.144761071933	353.225774795107	879.610632075898	45.077309502544	361.935343261068	978.134940743773	816.377697728590	556.795964688190	931.163186081242	728.515659196213	628.563446650629	1023.980802385612	696.355392871909	558.447873617704	1062.074541456161	606.017474189347	604.437100388055	1031.522940637973	490.444658597681	577.774412530661	963.653028813313	421.540298198346	662.008537117448	1025.642892956409	350.777249300187	586.736073916921	925.648124739269	116.036055200716	569.207208201050	1004.593673123794	89.742478453747	643.851082966783	1104.474610702533	165.139527259340	629.419470173929	1210.825737444003	132.273838959435	631.208595453514	
